<?xml version="1.0" encoding="utf-8"?>
<!-- Generator: Adobe Illustrator 24.0.2, SVG Export Plug-In . SVG Version: 6.00 Build 0)  -->
<svg version="1.1" id="Layer_1" xmlns="http://www.w3.org/2000/svg" xmlns:xlink="http://www.w3.org/1999/xlink" x="0px" y="0px"
	 viewBox="0 0 420.52 199.3" style="enable-background:new 0 0 420.52 199.3;" xml:space="preserve">
<g>
	<path d="M37.41,148.35c-1.87-2.19-3.09-4.22-3.66-6.12c0-0.24-0.11-0.5-0.34-0.8c-0.23-0.29-0.4-0.5-0.51-0.62
		c-0.45-0.35-0.68-2.3-0.68-5.85c0-2.84,0.14-5.79,0.43-8.87c0.28-3.07,0.65-5.56,1.11-7.45l3.06-9.4l2.38-7.09l4.59-10.28
		l-6.81-1.95c-0.79-0.12-1.45-0.53-1.96-1.24c-0.51-0.71-0.77-1.36-0.77-1.95c0-0.94,0.48-2.1,1.45-3.46
		c0.96-1.36,1.73-2.04,2.3-2.04c0.34,0.12,1.25,0.18,2.72,0.18c3.4,0,5.96-0.18,7.66-0.53c1.13-0.47,1.93-1.42,2.38-2.84
		c0.45-0.94,0.99-2.13,1.62-3.55c0.62-1.42,1.22-2.72,1.79-3.9c0.34-0.71,0.88-1.8,1.62-3.28c0.74-1.48,1.67-3.16,2.81-5.05
		c0.23-0.35,0.74-1.21,1.53-2.57c0.79-1.36,1.76-2.51,2.89-3.46c0.79-0.83,1.76-1.24,2.89-1.24c1.13,0,2.61,0.77,4.42,2.31
		c0.23,0.35,0.54,0.83,0.94,1.42c0.4,0.59,0.6,1.13,0.6,1.6c0,0.47-0.45,1.48-1.36,3.01c-0.68,1.42-1.33,2.69-1.96,3.81
		c-0.62,1.13-1.16,2.1-1.62,2.93c-1.36,2.37-2.33,4.14-2.89,5.32c-1.14,1.54-1.7,2.72-1.7,3.55c0,0.83,0.74,1.24,2.21,1.24
		c1.59,0,4.25-0.35,8-1.06c1.59-0.24,2.66-0.35,3.23-0.35c3.97,0,6.13,1.72,6.47,5.14c0.11,0.71,0.17,1.54,0.17,2.48
		c0,1.66-0.54,2.66-1.62,3.01c-1.08,0.35-3.49,0.53-7.23,0.53c-3.63,0.59-7.38,0.89-11.23,0.89c-0.68,0-1.45,0.03-2.3,0.09
		c-0.85,0.06-1.73,0.21-2.64,0.44c-0.91,0.24-1.56,0.59-1.96,1.06c-0.4,0.47-0.82,1.24-1.28,2.31c-0.34,0.35-1.14,1.71-2.38,4.08
		c-1.59,3.43-2.61,5.5-3.06,6.21c-3.06,9.46-5.33,19.15-6.81,29.08c-0.23,1.89-0.34,3.08-0.34,3.55c0,1.77,0.57,3.01,1.7,3.72
		c1.13,0.71,3.06,1.06,5.79,1.06c3.86,0,7.2-0.41,10.04-1.24c3.4-1.54,5.96-2.84,7.66-3.9c1.02-0.59,1.96-1.15,2.81-1.68
		c0.85-0.53,1.45-0.91,1.79-1.15c0.34-0.71,0.74-1.06,1.19-1.06c0.91,0,1.7,0.95,2.38,2.84c0,1.89-0.4,3.55-1.19,4.97
		c-0.79,1.42-2.78,3.08-5.96,4.96c-6.58,4.37-13.16,6.56-19.74,6.56c-1.82,0-3.52-0.18-5.1-0.53
		C41.12,151.81,39.28,150.54,37.41,148.35z"/>
	<path d="M122.07,149.33c-2.84,0-5.13-1.3-6.89-3.9c-1.76-2.6-2.64-6.09-2.64-10.46c0-2.01,0.4-5.35,1.19-10.02
		c0.79-4.67,1.7-8.54,2.72-11.61c0.11-0.24,0.28-0.71,0.51-1.42c0.23-0.71,0.31-1.21,0.26-1.51c-0.06-0.29-0.2-0.44-0.43-0.44
		c-0.57,0-1.59,0.77-3.06,2.31c-3.18,2.84-6.58,6.41-10.21,10.73c-3.63,4.32-6.64,8.45-9.02,12.41c-2.38,3.96-3.57,6.71-3.57,8.25
		c0,1.3-0.48,2.3-1.45,3.01c-0.96,0.71-2.07,1.06-3.32,1.06c-0.79,0-1.53-0.18-2.21-0.53c-1.7-1.06-2.87-2.24-3.49-3.55
		c-0.62-1.3-0.94-3.19-0.94-5.67c0-2.01,0.06-3.6,0.17-4.79c0.45-8.16,1.28-15.34,2.47-21.54c1.19-6.21,3.49-15.04,6.89-26.51
		c0.11-0.35,1.19-3.37,3.23-9.04c3.52-10.4,5.5-16.08,5.96-17.02c0.79-0.83,1.96-3.4,3.49-7.71c1.53-4.31,2.3-6.94,2.3-7.89
		c0-1.77,0.57-3.25,1.7-4.43l1.7-1.77c1.02,0,2.21,0.44,3.57,1.33c1.36,0.89,2.21,1.92,2.55,3.1c0.79,1.54,1.19,3.19,1.19,4.96
		c0,1.66-0.48,3.7-1.45,6.12c-0.96,2.42-2.58,5.94-4.85,10.55c-3.29,6.86-6.35,14.72-9.19,23.58c-1.25,3.78-2.98,9.66-5.19,17.64
		s-3.32,12.62-3.32,13.92c0,0.83,0.4,1.24,1.19,1.24c0.91,0,1.87-0.71,2.89-2.13c0.45-0.94,2.61-3.25,6.47-6.92
		c0.45-0.47,3-2.93,7.66-7.36c4.65-4.43,8-6.65,10.04-6.65c1.36,0,2.69,0.53,4,1.6c1.3,1.06,2.18,2.31,2.64,3.72
		c0.45,0.47,0.79,0.95,1.02,1.42c0.23,0.47,0.45,0.83,0.68,1.06c0.23,0.24,0.34,0.95,0.34,2.13c0,4.14-1.25,10.11-3.74,17.91
		c-1.93,7.8-2.89,12.47-2.89,14.01c0,1.06,0.28,1.6,0.85,1.6c0.34-0.24,1.02-0.65,2.04-1.24c1.02-0.59,2.21-1.3,3.57-2.13
		c3.86-2.72,7.26-4.08,10.21-4.08c1.36,0,2.04,0.47,2.04,1.42c0,0.24-0.17,0.65-0.51,1.24c-0.34,0.59-0.51,1.06-0.51,1.42v0.89
		c0,0.59-1.53,2.37-4.59,5.32c-3.06,2.96-5.28,4.61-6.64,4.96C125.81,148.86,123.99,149.33,122.07,149.33z"/>
	<path d="M146.06,150.57c-0.68,0-1.39-0.24-2.13-0.71c-0.74-0.47-1.16-0.77-1.28-0.89c-1.7,0-2.78-0.95-3.23-2.84
		c-0.11-0.24-0.17-0.77-0.17-1.6c0-1.53,0.68-4.55,2.04-9.04l1.19-5.67c1.13-5.2,2.15-9.58,3.06-13.12c0.34-0.59,1.02-2.6,2.04-6.03
		c0.68-2.6,1.59-5.14,2.72-7.63c1.36-5.32,3.52-10.58,6.47-15.78c0.23-0.35,0.68-0.83,1.36-1.42c0.68-0.59,1.19-0.89,1.53-0.89
		c0.68-0.71,1.42-1.06,2.21-1.06c0.79,0,1.81,0.53,3.06,1.6c1.13,1.42,1.7,2.78,1.7,4.08c0,2.25-1.42,5.62-4.25,10.11l-2.72,6.92
		c-0.23,0.59-0.79,1.98-1.7,4.17c-0.91,2.19-1.48,4.17-1.7,5.94c1.47-2.13,4.14-5.2,8-9.22c2.27-2.36,4.14-4.11,5.62-5.23
		c1.47-1.12,3.63-2.63,6.47-4.52c2.04-1.53,3.85-2.66,5.45-3.37c1.59-0.71,3.34-1.06,5.28-1.06c1.02,0,1.81,0.06,2.38,0.18
		c1.59-0.12,2.83,0.71,3.74,2.48c0.91,1.77,1.47,4.08,1.7,6.92c-1.36-0.24-2.33-0.35-2.89-0.35c-2.27,0-4.28,0.47-6.04,1.42
		c-1.76,0.95-3.21,1.86-4.34,2.75c-1.14,0.89-1.87,1.45-2.21,1.68c-6.13,4.14-10.89,8.04-14.29,11.7c-3.52,4.02-5.99,6.98-7.4,8.87
		c-1.42,1.89-2.47,3.78-3.15,5.67c-0.34,0.83-1.31,3.28-2.89,7.36c-1.59,4.08-2.89,6.53-3.91,7.36
		C147.31,150.16,146.74,150.57,146.06,150.57z"/>
	<path d="M208.34,151.1c-2.84,0-5.53-0.71-8.08-2.13c-2.55-1.42-4.68-3.37-6.38-5.85c-1.48-1.89-2.55-4.02-3.23-6.38
		c-0.68-2.36-1.02-5.26-1.02-8.69c0-1.18,0.11-3.55,0.34-7.09c0.34-4.37,1.73-8.92,4.17-13.65c2.44-4.73,5.47-8.95,9.1-12.68
		c3.63-3.72,7.2-6.29,10.72-7.71c1.81-1.18,3.46-1.77,4.94-1.77c0.79,0,1.59,0.06,2.38,0.18c0.79,0.12,1.64,0.24,2.55,0.35
		c2.49,0.35,4.4,0.86,5.7,1.51c1.3,0.65,2.41,1.63,3.32,2.93c2.83,2.96,4.25,6.38,4.25,10.28c-0.46,2.84-2.21,6.09-5.28,9.75
		c-3.06,3.67-6.75,6.62-11.06,8.87c-2.04,0.71-4.37,1.06-6.98,1.06c-3.52,0-6.36-0.77-8.51-2.31c-1.02-0.35-1.81-0.53-2.38-0.53
		c-1.02,0-1.79,0.71-2.3,2.13c-0.51,1.42-0.99,4.02-1.45,7.8c-0.12,0.83-0.17,2.01-0.17,3.55c0,6.03,1.93,9.34,5.79,9.93
		c2.61,0.59,4.48,0.89,5.62,0.89c1.36,0,2.89-0.47,4.6-1.42l3.23-1.95c0.68-0.35,1.3-0.83,1.87-1.42c0.57-0.59,1.08-1.12,1.53-1.6
		c0.22-0.24,0.57-0.62,1.02-1.15c0.45-0.53,0.88-0.89,1.28-1.06c0.4-0.18,0.77-0.27,1.11-0.27c0.45,0,0.96,0.27,1.53,0.8
		c0.57,0.53,1.02,0.92,1.36,1.15c1.02,0,1.25,0.74,0.68,2.22c-0.57,1.48-1.79,3.19-3.66,5.14c-1.87,1.95-4,3.7-6.38,5.23
		C215.71,149.8,212.31,151.1,208.34,151.1z M224.25,105.18c1.98-2.13,2.98-3.9,2.98-5.32c0-1.42-0.51-2.6-1.53-3.55
		c-1.02-0.94-2.44-1.42-4.26-1.42c-1.36,0-2.38,0.12-3.06,0.35c-1.59,0.47-3.46,1.75-5.62,3.81c-2.16,2.07-4.03,4.17-5.62,6.29
		c-1.59,2.13-2.21,3.37-1.87,3.72c0.57,1.06,2.78,1.6,6.64,1.6c2.61,0,4.77-0.35,6.47-1.06
		C220.31,108.79,222.26,107.31,224.25,105.18z"/>
	<path d="M243.39,148.62c-1.48,0-2.84-0.15-4.08-0.44c-1.25-0.29-1.87-0.68-1.87-1.15c0-0.36-0.06-0.59-0.17-0.71
		c-0.11-0.12-0.34-0.18-0.68-0.18c-0.11-0.12-0.45-0.41-1.02-0.89c-0.57-0.47-1.25-0.89-2.04-1.24c-1.02-1.65-1.53-3.43-1.53-5.32
		c0-2.01,0.51-5.14,1.53-9.4c0.34-3.78,2.04-8.51,5.1-14.19c3.06-5.67,6.66-11.05,10.81-16.14c4.14-5.08,7.85-8.63,11.15-10.64
		c1.7-1.77,3.86-2.66,6.47-2.66c2.04,0,3.97,0.53,5.79,1.6c1.59,0.95,3.26,2.54,5.02,4.79c1.76,2.25,3.15,4.55,4.17,6.92
		c0.45,1.77,0.68,3.49,0.68,5.14c0,1.77-0.23,4.55-0.68,8.33c-0.57,2.13-1.05,4.73-1.45,7.8c-0.4,3.08-0.6,5.73-0.6,7.98
		c-0.23,1.66-0.11,2.99,0.34,3.99c0.45,1.01,1.08,1.51,1.87,1.51c0.57,0,1.19-0.18,1.87-0.53c1.13-0.59,2.38-0.89,3.74-0.89
		c1.25,0,2.27,0.35,3.06,1.06c0.79,0.71,1.19,1.77,1.19,3.19c0,2.13-1.39,4.25-4.17,6.38c-2.78,2.13-5.42,3.19-7.91,3.19
		c-1.7,0-3.26-1.39-4.68-4.17c-1.42-2.78-2.81-6.35-4.17-10.73l-1.02-4.08l-7.32,7.27l-3.91,4.08c-1.82,1.89-2.84,3.01-3.06,3.37
		c-1.25,2.25-4.37,4.38-9.36,6.38C245.32,148.51,244.3,148.62,243.39,148.62z M257.01,129.12c3.97-4.14,7.26-8.1,9.87-11.88
		c3.52-4.85,5.73-9.63,6.64-14.36c-0.45-1.42-1.19-2.84-2.21-4.26c-1.02-1.42-1.93-2.19-2.72-2.31c-2.27,0-4.65,1.36-7.15,4.08
		c-2.5,2.72-5.45,6.5-8.85,11.35l-5.62,8.69c-0.68,0.95-1.87,3.46-3.57,7.54c-1.7,4.08-2.55,6.53-2.55,7.36c0,2.6,0.74,3.9,2.21,3.9
		c1.13,0,2.44-0.47,3.91-1.42C249.69,136.15,253.03,133.26,257.01,129.12z"/>
	<path d="M327.11,152.88c-1.59-4.61-2.38-9.46-2.38-14.54c0-1.42,0.06-2.42,0.17-3.01l0.34-3.72l-6.64,5.5
		c-3.63,3.31-7.23,5.79-10.81,7.45c-3.57,1.66-6.84,2.48-9.79,2.48c-1.93-0.36-3.77-1.21-5.53-2.57c-1.76-1.36-3.04-2.98-3.83-4.88
		c-0.46-0.94-0.68-2.36-0.68-4.25c0-4.37,1.13-9.54,3.4-15.52c2.27-5.97,5.11-10.91,8.51-14.81c4.88-7.68,10.32-11.53,16.34-11.53
		c2.83,0,5.67,0.89,8.51,2.66c2.83,1.18,4.48,1.77,4.93,1.77c0.68,0,1.19-0.29,1.53-0.89c0.34-0.59,0.68-1.65,1.02-3.19
		c1.25-5.44,2.44-9.99,3.57-13.65c2.49-7.8,4.65-14.07,6.47-18.8c1.81-4.73,4.03-9.93,6.64-15.6c1.13-2.48,2.13-4.11,2.98-4.88
		c0.85-0.77,1.79-1.09,2.81-0.98c2.49,0,4.42,1.77,5.79,5.32c0.34,0.83,0.51,1.66,0.51,2.48c0,0.83-0.34,1.95-1.02,3.37
		c-2.95,5.32-6.58,14.01-10.89,26.07c-4.31,12.06-7.66,22.52-10.04,31.39c-1.02,3.9-1.9,9.52-2.64,16.84
		c-0.74,7.33-1.11,13.42-1.11,18.26c0,2.13,0.11,3.67,0.34,4.61c0.57,2.01,0.85,3.78,0.85,5.32c0,1.18-0.28,1.98-0.85,2.39
		c-0.57,0.41-1.48,0.68-2.72,0.8C330.06,157.49,328.13,156.18,327.11,152.88z M313.67,131.78c0.68-0.47,2.32-1.71,4.94-3.72
		c2.61-2.01,4.59-4.14,5.96-6.38c1.36-2.24,2.32-4.79,2.89-7.63c0.11-2.13-0.08-3.87-0.6-5.23c-0.51-1.36-1.5-2.69-2.98-3.99
		c-1.14-0.83-2.55-1.24-4.25-1.24c-3.06,0-5.9,1.3-8.51,3.9c-3.06,2.84-5.79,6.5-8.17,10.99c-2.38,4.49-4.2,9.69-5.45,15.6
		c-0.34,2.25,0.79,3.37,3.4,3.37c1.36,0,2.44-0.12,3.23-0.35C306.75,136.51,309.93,134.73,313.67,131.78z"/>
	<path d="M346.85,149.51c-2.84-1.65-4.71-3.9-5.62-6.74c-0.79-2.13-1.19-3.31-1.19-3.55c0-0.71,0.4-1.24,1.19-1.6
		c0.79,0,1.73,0.35,2.81,1.06c1.08,0.71,1.96,1.18,2.64,1.42c1.7,1.66,4.03,2.48,6.98,2.48c2.27,0,4.34-0.47,6.21-1.42
		c1.87-0.95,2.92-2.07,3.15-3.37c0-0.59-0.57-2.66-1.7-6.21c-2.84-4.25-5.02-8.6-6.55-13.03c-1.53-4.43-2.3-8.18-2.3-11.26
		c0-2.24,0.62-4.55,1.87-6.92c1.25-2.36,2.95-4.37,5.11-6.03c2.83-3.07,6.27-5.85,10.29-8.33c4.03-2.48,7.68-4.19,10.98-5.14
		c1.36,0,3.03,0.18,5.02,0.53c1.98,0.35,3.37,0.77,4.17,1.24c1.25,0.47,2.44,1.77,3.57,3.9c1.13,2.13,1.7,4.14,1.7,6.03
		c0,1.89-0.96,4.49-2.89,7.8c-0.23,0.83-0.68,1.95-1.36,3.37c-0.68,1.42-1.02,2.31-1.02,2.66c-0.46,1.18-1.19,1.77-2.21,1.77
		c-1.02,0-2.02-0.5-2.98-1.51c-0.96-1-1.73-2.22-2.3-3.64c-0.34-1.42-0.51-2.66-0.51-3.72c0-1.42,0.45-2.84,1.36-4.26
		c1.25-1.3,1.87-2.19,1.87-2.66c0-0.47-0.63-0.71-1.87-0.71c-1.36,0-3.97,1.13-7.83,3.37c-3.86,2.25-6.92,4.61-9.19,7.09
		c-2.04,2.01-3.29,3.52-3.74,4.52c-0.45,1.01-0.68,2.51-0.68,4.52c0,1.77,0.37,3.87,1.11,6.29c0.74,2.42,1.5,4.05,2.3,4.88
		c0.23,0.47,0.71,1.48,1.45,3.01c0.74,1.54,1.62,3.01,2.64,4.43c2.27,5.32,3.4,9.46,3.4,12.41c0,3.43-1.28,5.91-3.83,7.45
		c-2.55,1.54-6.55,2.31-12,2.31C353.03,151.99,349.68,151.16,346.85,149.51z"/>
</g>
<g>
	<g>
		<path d="M27.47,172.32c45.31-0.69,90.61-1.37,135.92-2.06c45.08-0.68,90.15-1.36,135.23-2.04c25.43-0.38,50.85-0.77,76.28-1.15
			c3.26-0.05,3.17-4.74,0-5c-45.04-3.7-90.21-5.82-135.4-6.33c-44.96-0.51-89.94,0.56-134.83,3.22c-25.42,1.5-50.81,3.52-76.15,6.03
			c-3.17,0.31-3.2,5.32,0,5c44.97-4.46,90.1-7.34,135.28-8.61c44.95-1.27,89.94-0.95,134.86,0.95c25.44,1.07,50.86,2.66,76.24,4.75
			c0-1.67,0-3.33,0-5c-45.31,0.69-90.61,1.37-135.92,2.06c-45.08,0.68-90.15,1.36-135.23,2.04c-25.43,0.38-50.85,0.77-76.28,1.15
			C24.25,167.37,24.24,172.37,27.47,172.32L27.47,172.32z"/>
	</g>
</g>
</svg>
